PathFileType	4	(X/Y/Z)	33_2_82_p0_0-201_filt_butterworth.trc
DataRate	CameraRate	NumFrames	NumMarkers	Units	OrigDataRate	OrigDataStartFrame	OrigNumFrames
59.0	59.0	6	27	m	59.0	25	201
Frame#	Time	RHip			RKnee			RAnkle			RBigToe			RSmallToe			RHeel			LHip			LKnee			LAnkle			LBigToe			LSmallToe			LHeel			Neck			Head			Nose			RShoulder			RElbow			RWrist			RThumb			RIndex			RPinky			LShoulder			LElbow			LWrist			LThumb			LIndex			LPinky			
		X1	Y1	Z1	X2	Y2	Z2	X3	Y3	Z3	X4	Y4	Z4	X5	Y5	Z5	X6	Y6	Z6	X7	Y7	Z7	X8	Y8	Z8	X9	Y9	Z9	X10	Y10	Z10	X11	Y11	Z11	X12	Y12	Z12	X13	Y13	Z13	X14	Y14	Z14	X15	Y15	Z15	X16	Y16	Z16	X17	Y17	Z17	X18	Y18	Z18	X19	Y19	Z19	X20	Y20	Z20	X21	Y21	Z21	X22	Y22	Z22	X23	Y23	Z23	X24	Y24	Z24	X25	Y25	Z25	X26	Y26	Z26	X27	Y27	Z27	
25	0.423728813559322	0.3107157965991192	0.36514089638495256	0.10334274184624515	0.3014347662840782	0.5696615165156167	0.5241393879025265	0.2850908023057323	0.747172388149436	0.9102737568940646	0.25169046124118377	0.6059281264815797	0.9969179777609722	0.3292024008027102	0.6248773411153858	0.9944106530077329	0.24833996646893552	0.8987517074423412	0.9582985332264655	0.09938929088273168	0.37691273756376026	0.12701995320083564	0.09319988024969972	0.5842820983283836	0.5290815148410652	0.08716010576429177	0.7968623146182567	0.9196092677894433	0.09955324039069512	0.5961571691746615	0.988686179912251	0.04101730357038304	0.6776505129847631	0.9862980938044663	0.09081849337545482	0.8404992801513586	0.9500929948020517	0.23525390633557192	0.029162203362516396	-0.376985442918741	0.24666628479931862	-0.09928643071558685	-0.5784850101085093	0.2665020566670453	-0.12483304472699902	-0.42044338711632645	0.3902872189398521	0.08462661467961768	-0.30242548359115473	0.42940438773226897	0.19592784911295147	-0.0528363498142523	0.29108364170384254	0.19771916310151377	0.1803035017134766	0.2151236843961617	0.2093506611212607	0.27110684503140214	0.21192301430369326	0.2264193459598234	0.2801151748501207	0.19980753320288663	0.25647295726700414	0.2671328112017265	0.06301466871157901	0.06563656591789736	-0.30086671988609326	0.04510310812310077	0.17909017318835266	-0.045963609484586374	0.14022024325511967	0.19806145822830584	0.17930631172567169	0.2525709629468807	0.14558011449384758	0.23033064205740517	0.23043332210776013	0.20967327785760626	0.26846153604761025	0.1886311399626487	0.23008917237921578	0.27995575451425925
26	0.4406779661016949	0.31234117620026064	0.3577320382259762	0.09986157078920345	0.30173475116397885	0.5694149276179196	0.5184736271513607	0.28284868854327594	0.7436354697245309	0.910045784329637	0.25155466756427175	0.6044953275580272	0.9961196102202976	0.3289879272651642	0.624861206089194	0.9942688986439201	0.24863179441196848	0.8990210369596157	0.9589992295022026	0.10287378728443218	0.37008345729859254	0.12103663679042735	0.0969826056714492	0.5807931480410219	0.5247754070419577	0.08828619894335221	0.7965347194621994	0.9194053627772196	0.0991519804588934	0.5923195947076577	0.9880566202891791	0.041317898626782056	0.6769887261036527	0.9857752789505545	0.09058756200931359	0.8417403223815604	0.9502991090758689	0.23499416156457542	0.03032352609100495	-0.373619442084534	0.24715706853336314	-0.10179156929962732	-0.5701276583420373	0.2669117096133684	-0.1289216394613337	-0.41737270911042634	0.3890548351374883	0.07907055902154905	-0.2967089745292591	0.42682853079234234	0.19567790361998882	-0.048659133604857636	0.2933596692270092	0.2013753489285124	0.1870063691314015	0.2103127359392218	0.20998026372093495	0.2759204931277161	0.20683913485633976	0.22857618118255196	0.2907613063025851	0.20219830873393735	0.259318469742305	0.27906225877275714	0.0634114786666761	0.06412767193813335	-0.2964055932884585	0.048469484448834706	0.1794081904391844	-0.04147949575288477	0.13873070792263492	0.2051757225198806	0.18244172401975728	0.24244848124613752	0.16060014762803695	0.24635422821614192	0.22219101419600595	0.2103215371734305	0.2762773298025726	0.18658379239486186	0.23481984324103183	0.2868132647718563
27	0.4576271186440678	0.3138115932259427	0.35172829498413044	0.09976067582719877	0.30204266083954945	0.5707719292008725	0.5154510047482165	0.2788739720280231	0.736584477184382	0.9098972069083999	0.2517649381411753	0.6048387359784194	0.9948482751715887	0.32846567153794204	0.6232091446713981	0.993647748127523	0.24797591031365107	0.8899838248202143	0.9590520301230033	0.10528206450763578	0.3658531419507942	0.11828040710120255	0.10165152164455357	0.5695273146821578	0.5200945003183644	0.08893316534626126	0.7964117882531281	0.9189973006562718	0.0987347465594196	0.5878860989439455	0.9877724153778398	0.04165330816062335	0.6762979553665127	0.9858788662189599	0.09148301916744489	0.8448211441468241	0.9505510167729827	0.2345806449877061	0.030989071779630475	-0.36814412142523334	0.248174177914679	-0.10577050423894382	-0.5596483126134112	0.26684843817297627	-0.13632303707451926	-0.4106439021794114	0.38681327102121055	0.07704886476355835	-0.2884040940990456	0.4226584303928873	0.19585468875528445	-0.04177415333984547	0.2964560281848422	0.20844932657656098	0.19428936792726437	0.20372575834432344	0.2200969536584425	0.28201977534581496	0.1991760912050069	0.2434523723456069	0.30356728570240743	0.2058446562415664	0.27295253739416253	0.29222965855225674	0.06326889287495253	0.06579737631447012	-0.29179736697033454	0.0511228699431726	0.18202750439278456	-0.037068508489554584	0.13839940289098152	0.2156965071041338	0.18445559550237628	0.22679199784470042	0.1787489645936313	0.26236602669628184	0.21122652874988251	0.20846067547347888	0.288042042324457	0.18558188608390794	0.2413007415778886	0.2980993132617674
28	0.4745762711864407	0.3146373786083212	0.34806941216248616	0.10440674439699217	0.30255312383839905	0.5717911514691837	0.5152328942044145	0.27489558027873173	0.7285421039729845	0.9097408195527443	0.2520591206396101	0.6054046690819991	0.9935006219703723	0.327838481345373	0.619226448037764	0.9924611074061092	0.2467641050945715	0.8723884322699953	0.9584922226506732	0.10693740195273557	0.3643931726926756	0.11988315972221832	0.10597505833706641	0.5522338773874564	0.5158418023409821	0.0891244850592755	0.7966284436952007	0.9188715386208135	0.09846256457759693	0.5847009832308493	0.9876888507523285	0.04191207006907256	0.6762846095351767	0.9863504931207691	0.09307399374448609	0.8479898209643584	0.9511492559679944	0.23394419112603052	0.0313903386953518	-0.3590779120963986	0.2496450138587906	-0.10884702302028788	-0.5492759045987304	0.26619210254749726	-0.14358639239333607	-0.40137280218185034	0.3841163914841508	0.07677138586292423	-0.27706944229301605	0.4174701986159112	0.1954625367781846	-0.032805396394942746	0.30019352658964144	0.21565068356387745	0.2009095104356121	0.19794732839241092	0.23729961469020291	0.29040461318442745	0.19208527877237822	0.2660031455873517	0.3161790917575273	0.21205024825806779	0.29739306878213756	0.30402333135105586	0.06247499495625012	0.06654022186304781	-0.2855563759809706	0.052749714558476324	0.18607488243974388	-0.032672368191896096	0.13765301617412584	0.22596010719663007	0.18618690452647157	0.2105514423938645	0.19057820670948256	0.27438134367843314	0.20010435750804834	0.2032066207736674	0.3029261198367018	0.18395458012207513	0.2494903629475166	0.31307236962843726
29	0.4915254237288136	0.31500369053932475	0.34721289717800286	0.11247668245139447	0.3031062624743015	0.5708512013306176	0.5164680735775441	0.2722896321664959	0.7230975947726717	0.9095449911626046	0.25230532719008036	0.6058042331876445	0.9927055597790482	0.3273816884057683	0.6142465625003247	0.9910987752050553	0.2446516818652139	0.8532526304834203	0.9585006052282226	0.10796519118043342	0.3660931020359012	0.12413239267551582	0.10893213578243476	0.5357106165599288	0.5127312614535544	0.0891486737157908	0.7975304859605705	0.9200655068125612	0.0983600116362777	0.5835534758240548	0.9876192852977049	0.04209395390063659	0.6772841514804712	0.9867296601716325	0.09430695816052703	0.8490544725929897	0.9527779982282638	0.23308807384166533	0.031763920582288746	-0.3471121282656145	0.25133982208254346	-0.11040505642062942	-0.5404891782047501	0.26514834779803886	-0.14822313817186256	-0.3912745783925915	0.38228337093159254	0.07553749558975464	-0.263869412212698	0.41288047324053967	0.19427854255366553	-0.02282733884123939	0.3050550828866374	0.2195276754312094	0.20637307689587472	0.1961739993157037	0.253670789823719	0.3005504680579366	0.19034979250308293	0.2845728060343295	0.32673791965888305	0.221714979933415	0.3282822168837722	0.3120828283216755	0.06084072800776009	0.06433164513761445	-0.276340060507438	0.05318676908045912	0.18978866666133645	-0.02758400756365826	0.13454890475353787	0.2328661975791622	0.18829834062646286	0.19848065418754543	0.19373344595254313	0.2813280408832584	0.1911670366942012	0.1986956206464761	0.3183075591166529	0.17908902233585508	0.26170771965005735	0.327952010124031
30	0.5084745762711864	0.3152754834647247	0.3500348237098037	0.12044064482579565	0.30248221978752005	0.565323356121763	0.5176508368805054	0.2709367983586933	0.7208075219889247	0.909340267630055	0.2524218277957172	0.6060617498959959	0.9925329187425151	0.32693905024609404	0.6104983442160136	0.9901076195247036	0.24170501870391842	0.8414210196086066	0.9606311919405592	0.10826997789310557	0.37053201698005483	0.1291160677747203	0.10984347084231796	0.5265837361479333	0.5113870467204752	0.08906421142172798	0.7992051778374951	0.9229235062444539	0.09828259934623763	0.5837032368769997	0.9872904508977324	0.04220723923603686	0.6787764658366902	0.9869150800168945	0.09407136372001877	0.8467582127957001	0.955307640047121	0.23204775177432743	0.03202764014517807	-0.3345512388888026	0.25238527111096243	-0.1108761237793409	-0.5333009250869758	0.26407939816454645	-0.1502700961704277	-0.38116105489613594	0.38201584777782954	0.07312550167130691	-0.25142695261567827	0.41106248851065696	0.19145892761330324	-0.0133634755790457	0.31154226770524723	0.21981816874145382	0.2108186982271447	0.20016427658821548	0.2618098257657405	0.31030041519662016	0.1971778120634235	0.29104418022802614	0.3347547269864311	0.23335901663583888	0.35576239430948514	0.31567387468627567	0.05856446350037188	0.061404791919500504	-0.26504067563649647	0.05265326269132976	0.19258425616229372	-0.021222802147392802	0.12957368283217408	0.2363690323887101	0.1918909613239476	0.19190670869073556	0.19429878028416492	0.2851238461067964	0.18494013707223225	0.19961180144408822	0.3323340320231908	0.16987876590392348	0.2803383341318049	0.338737459536793
